		    {
                        "midi": 72,
                        "time": 8,
                        "name": "C#3",
                        "velocity": 0.95,
                        "duration": 2
                    },
		    {
                        "midi": 72,
                        "time": 9,
                        "name": "D#3",
                        "velocity": 0.95,
                        "duration": 2
                    },
		    {
                        "midi": 72,
                        "time": 10,
                        "name": "F#3",
                        "velocity": 0.95,
                        "duration": 2
                    },
		    {
                        "midi": 72,
                        "time": 11,
                        "name": "G#3",
                        "velocity": 0.95,
                        "duration": 2
                    },
		    {
                        "midi": 72,
                        "time": 12,
                        "name": "A#3",
                        "velocity": 0.95,
                        "duration": 2
                    },




		    {
                        "midi": 72,
                        "time": 20,
                        "name": "C#4",
                        "velocity": 0.95,
                        "duration": 2
                    },
		    {
                        "midi": 72,
                        "time": 21,
                        "name": "D#4",
                        "velocity": 0.95,
                        "duration": 2
                    },
		    {
                        "midi": 72,
                        "time": 22,
                        "name": "F#4",
                        "velocity": 0.95,
                        "duration": 2
                    },
		    {
                        "midi": 72,
                        "time": 23,
                        "name": "G#4",
                        "velocity": 0.95,
                        "duration": 2
                    },
		    {
                        "midi": 72,
                        "time": 24,
                        "name": "A#4",
                        "velocity": 0.95,
                        "duration": 2
                    },







		    {
                        "midi": 72,
                        "time": 1,
                        "name": "C3",
                        "velocity": 0.95,
                        "duration": 2
                    },
		    {
                        "midi": 72,
                        "time": 2,
                        "name": "D3",
                        "velocity": 0.95,
                        "duration": 2
                    },
		    {
                        "midi": 72,
                        "time": 3,
                        "name": "E3",
                        "velocity": 0.95,
                        "duration": 2
                    },
		    {
                        "midi": 72,
                        "time": 4,
                        "name": "F3",
                        "velocity": 0.95,
                        "duration": 2
                    },
		    {
                        "midi": 72,
                        "time": 5,
                        "name": "G3",
                        "velocity": 0.95,
                        "duration": 2
                    },
		    {
                        "midi": 72,
                        "time": 6,
                        "name": "A3",
                        "velocity": 0.95,
                        "duration": 2
                    },
		    {
                        "midi": 72,
                        "time": 7,
                        "name": "B3",
                        "velocity": 0.95,
                        "duration": 2
                    },
		    {
                        "midi": 72,
                        "time": 13,
                        "name": "C4",
                        "velocity": 0.95,
                        "duration": 2
                    },
		    {
                        "midi": 72,
                        "time": 14,
                        "name": "D4",
                        "velocity": 0.95,
                        "duration": 2
                    },
		    {
                        "midi": 72,
                        "time": 15,
                        "name": "E4",
                        "velocity": 0.95,
                        "duration": 2
                    },
		    {
                        "midi": 72,
                        "time": 16,
                        "name": "F4",
                        "velocity": 0.95,
                        "duration": 2
                    },
		    {
                        "midi": 72,
                        "time": 17,
                        "name": "G4",
                        "velocity": 0.95,
                        "duration": 2
                    },
		    {
                        "midi": 72,
                        "time": 18,
                        "name": "A4",
                        "velocity": 0.95,
                        "duration": 2
                    },
		    {
                        "midi": 72,
                        "time": 19,
                        "name": "B4",
                        "velocity": 0.95,
                        "duration": 2
                    },